HIERARCHY
ROOT SpineBase
{
  OFFSET 0.000000 0.000000 0.000000
  CHANNELS 6 Xposition Yposition Zposition Zrotation Xrotation Yrotation
  JOINT SpineMid
  {
    OFFSET 0.000000 28.976184 0.000000
    CHANNELS 3 Zrotation Xrotation Yrotation
    JOINT SpineShoulder
    {
      OFFSET -0.042705 21.693834 -0.760279
      CHANNELS 3 Zrotation Xrotation Yrotation
      JOINT Neck
      {
        OFFSET -0.033746 7.242735 -0.556120
        CHANNELS 3 Zrotation Xrotation Yrotation
        JOINT Head
        {
          OFFSET 3.992912 13.123024 -1.628061
          CHANNELS 3 Zrotation Xrotation Yrotation
          End Site
          {
            OFFSET 0 0 0
          }
        }
      }
      JOINT ShoulderLeft
      {
        OFFSET -13.814754 -0.776655 -8.163303
        CHANNELS 3 Zrotation Xrotation Yrotation
        JOINT ElbowLeft
        {
          OFFSET -5.736876 -26.581773 -1.888625
          CHANNELS 3 Zrotation Xrotation Yrotation
          JOINT WristLeft
          {
            OFFSET 0.245263 -22.564331 -5.096110
            CHANNELS 3 Zrotation Xrotation Yrotation
            JOINT HandLeft
            {
              OFFSET -0.626422 -6.995776 0.294868
              CHANNELS 3 Zrotation Xrotation Yrotation
              JOINT HandTipLeft
              {
                OFFSET -0.685932 -7.266127 -0.965428
                CHANNELS 3 Zrotation Xrotation Yrotation
                End Site
                {
                  OFFSET 0 0 0
                }
              }
              JOINT ThumbLeft
              {
                OFFSET -3.576418 1.666266 -1.035261
                CHANNELS 3 Zrotation Xrotation Yrotation
                End Site
                {
                  OFFSET 0 0 0
                }
              }
            }
          }
        }
      }
      JOINT ShoulderRight
      {
        OFFSET 16.602782 -3.094268 4.565489
        CHANNELS 3 Zrotation Xrotation Yrotation
        JOINT ElbowRight
        {
          OFFSET 2.658095 -29.131687 4.908976
          CHANNELS 3 Zrotation Xrotation Yrotation
          JOINT WristRight
          {
            OFFSET 2.727338 -22.076047 -2.487229
            CHANNELS 3 Zrotation Xrotation Yrotation
            JOINT HandRight
            {
              OFFSET -0.344173 -7.390123 -2.644134
              CHANNELS 3 Zrotation Xrotation Yrotation
              JOINT HandTipRight
              {
                OFFSET -0.202946 -6.958158 0.140495
                CHANNELS 3 Zrotation Xrotation Yrotation
                End Site
                {
                  OFFSET 0 0 0
                }
              }
              JOINT ThumbRight
              {
                OFFSET 2.027532 2.570747 -2.564680
                CHANNELS 3 Zrotation Xrotation Yrotation
                End Site
                {
                  OFFSET 0 0 0
                }
              }
            }
          }
        }
      }
    }
  }
  JOINT HipLeft
  {
    OFFSET -6.596572 2.151218 -5.613481
    CHANNELS 3 Zrotation Xrotation Yrotation
    JOINT KneeLeft
    {
      OFFSET -9.568255 -35.727266 0.251006
      CHANNELS 3 Zrotation Xrotation Yrotation
      JOINT AnkleLeft
      {
        OFFSET -3.314691 -42.812677 6.778012
        CHANNELS 3 Zrotation Xrotation Yrotation
        JOINT FootLeft
        {
          OFFSET 0.020927 -4.839344 -7.345079
          CHANNELS 3 Zrotation Xrotation Yrotation
          End Site
          {
            OFFSET 0 0 0
          }
        }
      }
    }
  }
  JOINT HipRight
  {
    OFFSET 6.025400 0.276715 -0.470126
    CHANNELS 3 Zrotation Xrotation Yrotation
    JOINT KneeRight
    {
      OFFSET -2.617077 -36.457156 7.349143
      CHANNELS 3 Zrotation Xrotation Yrotation
      JOINT AnkleRight
      {
        OFFSET -8.721464 -41.159191 9.133162
        CHANNELS 3 Zrotation Xrotation Yrotation
        JOINT FootRight
        {
          OFFSET 9.000832 -5.879749 3.007504
          CHANNELS 3 Zrotation Xrotation Yrotation
          End Site
          {
            OFFSET 0 0 0
          }
        }
      }
    }
  }
}
MOTION
Frames: 12
Frame Time: 0.033333
33.717778 85.548840 348.572261 -0.000000 0.000000 -22.170509 0.000000 0.000000 22.170509 -0.000000 0.000000 0.000000 -0.000000 0.000000 0.000000 0.000000 0.000000 0.000000 -0.000000 0.000000 0.000000 -0.000000 0.000000 0.000000 -0.000000 0.000000 0.000000 -0.000000 0.000000 0.000000 0.000000 0.000000 0.000000 0.000000 0.000000 0.000000 -0.000000 0.000000 0.000000 -0.000000 0.000000 0.000000 -0.000000 0.000000 0.000000 -0.000000 0.000000 0.000000 0.000000 0.000000 0.000000 0.000000 0.000000 0.000000 0.000000 0.000000 22.170509 -0.000000 0.000000 0.000000 -0.000000 0.000000 0.000000 0.000000 0.000000 0.000000 0.000000 0.000000 22.170509 -0.000000 0.000000 0.000000 -0.000000 0.000000 0.000000 0.000000 0.000000 0.000000
33.726343 85.510787 348.589386 -0.011516 -0.084530 -23.085579 -0.022551 0.082276 23.085587 -0.000000 0.000000 0.000000 -0.000000 0.000000 0.000000 0.000000 0.000000 0.000000 -0.000000 0.000000 0.000000 -0.000000 0.000000 0.000000 -0.323204 3.299929 -0.300168 -0.523921 -7.469527 0.750937 0.000000 0.000000 0.000000 0.000000 0.000000 0.000000 -0.000000 0.000000 0.000000 -0.346620 2.714068 0.381753 -2.090843 -6.001862 0.468004 3.722344 4.194397 -1.172971 0.000000 0.000000 0.000000 0.000000 0.000000 0.000000 -0.022551 0.082276 23.085587 -0.000000 0.000000 0.000000 4.746024 7.598013 -6.795139 0.000000 0.000000 0.000000 -0.022551 0.082276 23.085587 -0.000000 0.000000 0.000000 1.183552 -0.397383 0.001171 0.000000 0.000000 0.000000
33.743900 85.471792 348.573736 -0.053979 -0.227097 -23.710324 -0.041896 0.229634 23.710301 -0.000000 0.000000 0.000000 -0.327856 0.902859 -0.312840 0.000000 0.000000 0.000000 -0.548565 0.684310 -0.105284 -0.670577 -1.184481 0.362630 1.051886 6.142296 -0.781518 -1.015016 -13.099422 1.205280 0.000000 0.000000 0.000000 0.000000 0.000000 0.000000 -0.189907 0.982198 0.059343 -0.516816 3.522335 0.593949 -4.213063 -11.499560 0.771508 7.188014 8.440201 -2.659307 0.000000 0.000000 0.000000 0.000000 0.000000 0.000000 -0.041896 0.229634 23.710301 -0.000000 0.000000 0.000000 8.017450 11.796924 -11.170950 0.000000 0.000000 0.000000 0.252051 1.212390 23.784539 -0.665373 -0.780708 -0.082471 2.258943 -0.744968 0.028896 0.000000 0.000000 0.000000
33.770448 85.431857 348.525312 -0.127378 -0.427687 -24.043305 -0.057925 0.442477 24.043054 -0.000000 0.000000 0.000000 -0.294005 1.195789 -0.397462 0.000000 0.000000 0.000000 -0.792251 0.784826 -0.107455 -0.874639 -1.420077 0.456888 2.029050 7.881629 -1.046205 -1.460035 -17.115195 1.479092 0.000000 0.000000 0.000000 0.000000 0.000000 0.000000 -0.276300 1.097122 0.056298 -0.808853 4.432902 0.783431 -6.113406 -16.424504 0.911470 10.177643 12.551612 -4.289231 0.000000 0.000000 0.000000 0.000000 0.000000 0.000000 0.505439 -0.234933 24.270977 -0.235132 0.849102 -0.227202 9.985987 14.007457 -13.721990 0.000000 0.000000 0.000000 0.305351 1.617728 24.133687 -0.812118 -0.923936 -0.103713 3.226138 -1.042141 0.080732 0.000000 0.000000 0.000000
33.805988 85.390981 348.444113 -0.231711 -0.686298 -24.083094 -0.068507 0.721109 24.082137 -0.000000 0.000000 0.000000 -0.128807 1.381826 -0.435392 0.000000 0.000000 0.000000 -1.015882 0.723689 -0.077410 -0.988350 -1.414121 0.499105 3.246758 8.938146 -1.257963 -1.852716 -19.677358 1.636722 0.000000 0.000000 0.000000 0.000000 0.000000 0.000000 -0.356767 0.954836 0.030030 -1.127742 4.937131 0.919675 -7.462562 -20.527999 0.940170 12.348753 16.258790 -5.778498 0.000000 0.000000 0.000000 0.000000 0.000000 0.000000 0.541210 0.002549 24.322595 -0.259629 0.905904 -0.242256 10.882620 14.948649 -14.867050 0.000000 0.000000 0.000000 0.319609 1.873840 24.175595 -0.826207 -0.892623 -0.108683 4.085390 -1.288602 0.154509 0.000000 0.000000 0.000000
33.850519 85.349165 348.330140 -0.366989 -1.002932 -23.828030 -0.038420 -0.085371 23.807805 0.021184 0.017641 -0.019494 0.581334 2.508992 -0.396804 0.000000 0.000000 0.000000 -0.805258 1.547502 0.039296 -1.009638 -1.164699 0.491263 4.700642 9.390279 -1.416518 -2.200614 -20.885036 1.701865 0.000000 0.000000 0.000000 0.000000 0.000000 0.000000 0.414770 1.048137 0.032960 -1.911047 5.646943 1.004258 -7.932201 -23.469904 0.960143 13.308816 19.266189 -6.770880 0.000000 0.000000 0.000000 0.000000 0.000000 0.000000 0.518233 0.387176 24.049799 0.205931 0.059820 -0.097653 10.462195 15.685756 -15.120837 0.000000 0.000000 0.000000 0.298479 1.979950 23.908727 -0.706866 -0.686655 -0.097277 4.837131 -1.484296 0.248350 0.000000 0.000000 0.000000
33.904400 85.320265 348.187139 -0.521073 -1.260689 -23.528906 -0.059550 -0.036534 23.500695 0.023201 0.030437 -0.026204 1.041792 2.728596 -0.368079 0.000000 0.000000 0.000000 -0.885144 1.586947 0.106808 -0.779495 -1.037273 0.446362 7.730999 9.315562 -1.549203 -3.547568 -19.296682 1.373357 0.000000 0.000000 0.000000 0.000000 0.000000 0.000000 0.565985 1.240473 0.043146 -2.261492 4.690047 0.925163 -7.659328 -26.598649 1.060614 13.726447 23.621434 -7.669401 0.000000 0.000000 0.000000 0.000000 0.000000 0.000000 -0.025484 1.363877 23.523477 0.378379 -1.179218 0.154887 11.255795 16.681048 -16.078894 0.000000 0.000000 0.000000 -0.025484 1.363877 23.523477 -0.000000 0.000000 0.000000 5.165166 -1.333179 0.616713 0.000000 0.000000 0.000000
34.016919 85.314620 348.052370 -0.667436 -1.542973 -23.325486 -0.037267 -0.046670 23.288715 0.038117 -0.000615 -0.031834 1.855464 3.148122 -0.333267 0.000000 0.000000 0.000000 -0.889836 1.514980 0.215738 -0.626736 -0.513623 0.357604 9.949478 9.326556 -1.651388 -2.745899 -19.431458 1.470282 0.000000 0.000000 0.000000 0.000000 0.000000 0.000000 0.010953 0.849662 -0.114266 -1.860798 4.087330 0.980399 -5.901163 -25.929847 1.276440 10.287236 23.951669 -6.267995 0.000000 0.000000 0.000000 0.000000 0.000000 0.000000 0.002042 1.681108 23.316468 0.157611 -1.435398 0.137807 7.157956 12.533491 -10.463125 0.000000 0.000000 0.000000 0.002042 1.681108 23.316468 -0.000000 0.000000 0.000000 6.793885 -1.467475 1.202519 0.000000 0.000000 0.000000
34.134530 85.265134 347.890855 -0.839427 -2.147781 -22.090916 -0.049976 -0.176566 22.038308 0.026035 -0.027208 -0.044669 2.723201 3.326567 -0.108715 0.000000 0.000000 0.000000 -0.736721 1.493169 0.413625 -0.349800 0.601991 0.170255 11.694601 8.011210 -1.464090 -3.413060 -17.571720 1.134031 0.000000 0.000000 0.000000 0.000000 0.000000 0.000000 0.306577 0.080801 -0.231824 -2.686265 3.670779 1.015783 -2.131764 -24.051346 1.318596 5.218419 23.650230 -3.909489 0.000000 0.000000 0.000000 0.000000 0.000000 0.000000 -0.029704 2.305730 22.075778 -0.083844 -1.573704 0.107184 4.417693 8.846853 -6.398328 0.000000 0.000000 0.000000 -0.029704 2.305730 22.075778 -0.000000 0.000000 0.000000 6.463095 -1.850121 0.531122 0.000000 0.000000 0.000000
34.209022 85.147094 347.621412 -1.133573 -3.015851 -19.932950 -0.099024 -0.260174 19.853204 0.025771 -0.017491 -0.062390 3.938465 3.829658 0.066149 0.000000 0.000000 0.000000 -0.483264 1.279267 0.695724 -0.027777 2.398380 -0.094637 12.224090 5.648066 -1.003365 -2.690427 -13.351396 0.536625 0.000000 0.000000 0.000000 0.000000 0.000000 0.000000 0.809457 -0.265618 -0.309544 -3.962780 1.779894 0.880895 1.754633 -18.738193 1.219532 0.818101 20.535052 -1.754160 0.000000 0.000000 0.000000 0.000000 0.000000 0.000000 0.038165 3.221445 19.902035 -0.217725 -1.405487 0.071533 0.948267 4.083805 -1.161284 0.000000 0.000000 0.000000 -0.288538 1.371558 19.843391 0.935080 1.629263 0.058441 6.819247 -2.222864 0.201072 0.000000 0.000000 0.000000
34.380395 85.092245 347.476901 -1.441990 -3.971641 -17.164889 -0.177257 -0.571234 17.048477 -0.054694 -0.069456 -0.089376 5.920204 4.587607 0.259091 0.000000 0.000000 0.000000 0.055815 1.313973 0.999758 0.998420 4.317445 -0.616545 11.097509 3.254798 -0.347549 -2.062849 -9.694541 -0.011466 0.000000 0.000000 0.000000 0.000000 0.000000 0.000000 1.715171 -1.746687 -0.496846 -5.731600 2.217926 1.181429 3.531985 -14.855598 1.176189 0.213535 14.665699 -1.407591 0.000000 0.000000 0.000000 0.000000 0.000000 0.000000 -0.438534 5.043812 16.895328 -0.174088 -2.237912 0.261252 -0.801518 0.288318 2.086954 0.000000 0.000000 0.000000 -0.849438 1.137158 16.960455 1.810180 3.460661 -0.038057 7.299261 -3.179082 0.452320 0.000000 0.000000 0.000000
34.135108 84.858695 346.950568 -2.216274 -5.393802 -12.459328 -0.314052 -0.618029 12.259115 -0.082226 -0.044132 -0.129254 8.284449 5.029558 0.547569 0.000000 0.000000 0.000000 0.812099 0.645954 1.492856 0.877457 6.835006 -0.973978 11.593817 1.041301 -0.017648 -0.840853 -5.452047 -0.782465 0.000000 0.000000 0.000000 0.000000 0.000000 0.000000 2.610388 -2.801956 -0.715411 -7.244242 1.635812 1.437216 4.911356 -13.125383 1.353747 0.988852 11.664810 -1.661015 0.000000 0.000000 0.000000 0.000000 0.000000 0.000000 1.007541 5.742710 12.304382 -0.594432 -0.616514 -0.049513 -2.694106 -3.007134 5.201104 0.000000 0.000000 0.000000 -0.554035 1.032532 12.194657 2.628605 5.591365 -0.156453 8.418073 -4.242350 0.461394 0.000000 0.000000 0.000000
